<svg xmlns="http://www.w3.org/2000/svg" viewBox="0 0 260.21 196.84">
<defs>
<style>
.cls-1{
  fill:#dff3fc;
  }
.cls-19,.cls-2{
    fill:#fff;
    }
.cls-3{
  fill:#c3e7fb;
  }
.cls-4{
  fill:#07828e;
  }
.cls-5{
  fill:#329e46;
  }
.cls-6{
  fill:#9aedae;
  }
.cls-7{
  fill:#2c7c2e;
  }
.cls-8{
  fill:#bcbbbb;
  }
.cls-9{
  fill:#e0ede4;
  }
.cls-10{
  fill:#f2b6ca;
  }
.cls-11{
  fill:#f9a17b;}
.cls-12{
  fill:#352b28;}
.cls-13{
  fill:#020202;}
.cls-14{
  fill:none;stroke:#2d2826;}
.cls-14,.cls-19{stroke-miterlimit:10;stroke-width:0.25px;}
.cls-15{
  fill:#2d2826;
  }
.cls-16{
  fill:#f4d0db;
  }
.cls-17{
  fill:#ce5332;
  }
.cls-18{
  fill:#915a6f;
  }
.cls-19{
  stroke:#000;
  }
.cls-20{
  fill:#9b9d9e;
  }
</style>
</defs>
<title>asset</title>
<g id="Layer_2" data-name="Layer 2">
<g id="Layer_1-2" data-name="Layer 1">
<path class="cls-1" d="M142.66,21a67.51,67.51,0,0,0-5.36,5.55,73.8,73.8,0,0,0-5.84,7.81c-5.1,7.65-5.13,9.22-7.75,12.81a37.11,37.11,0,0,1-11.94,10.45,76.11,76.11,0,0,0-10.3-.38,57.65,57.65,0,0,0-9.62.92,45.29,45.29,0,0,0-15.93,6.4C72.33,66.9,68,69.75,65,75.32a20.73,20.73,0,0,0-2.54,7.25c-.68,5,1,7.48.64,13.6a30.83,30.83,0,0,1-.92,5.76,20.91,20.91,0,0,1-3.73,6.12,23,23,0,0,1-6.19,4.79c-8.35,4.9-12.52,7.36-14,8.42-3.47,2.58-6.68,5-9.16,9.35-.72,1.28-4,7-3.56,13.69a44.52,44.52,0,0,1,.23,5.55,36.69,36.69,0,0,1-.86,6.77,31.75,31.75,0,0,1-5.56,6.83,34.24,34.24,0,0,1-7,4.85c-3.46,2-8,5.82-12.43,13.82H259.53V21A92.12,92.12,0,0,0,215.11,1C176.77-4.81,148.19,16.66,142.66,21Z"/>
<path class="cls-2" d="M237.23,60.07l-49,.75a3.12,3.12,0,0,1,.86-2.15,3.77,3.77,0,0,1,2.22-.84,9.4,9.4,0,0,1,2.82,0,3.71,3.71,0,0,1,6.12-1.41,4.88,4.88,0,0,1,1.73-3,4.74,4.74,0,0,1,2.5-1,5.17,5.17,0,0,1,3.9,1.48,3.27,3.27,0,0,0,1.87-1.2,4.21,4.21,0,0,0,.47-1A4.41,4.41,0,0,1,213,49.52a3.7,3.7,0,0,1,1.66-.35,3.77,3.77,0,0,1,2.32.91,4.4,4.4,0,0,1,1,2.27,8.39,8.39,0,0,0,.09,1,3.15,3.15,0,0,0,1.37,1.78,4.28,4.28,0,0,0,1.59.41,4.08,4.08,0,0,0,1.37-.18,4.32,4.32,0,0,1,2.53-1.8,3.86,3.86,0,0,1,1.48.11,3.77,3.77,0,0,1,1.23.6,8.11,8.11,0,0,1,.92,1.3,9,9,0,0,1,.77,1.72,1.34,1.34,0,0,0,.92.57,1.5,1.5,0,0,0,1.05-.42c.29-.25.28-.4.57-.64a1.88,1.88,0,0,1,.77-.38,1.23,1.23,0,0,1,1.48.42,1.22,1.22,0,0,1,0,1.37,4.73,4.73,0,0,0,1,.6,5,5,0,0,0,2,.41.41.41,0,1,1,.08.81Z"/><polygon class="cls-3" points="208.13 115.44 208.13 71.52 177.54 71.52 176.97 142.47 208.13 141.72 208.13 115.44"/><polygon class="cls-3" points="212.17 82.03 227.19 82.03 227.19 142.47 211.79 142.47 212.17 82.03"/>
<path class="cls-3" d="M116.25,94.42h23.23V100h8.31V104h2.39v3.52h6.19l.57,74.56H48.54L47.83,147l15.35.28q-.07-12.52-.14-25.06l15.76.14-.14-22.1,8.31.14-.14,3,2,.43L88.52,107l2.53.56-.14,2.53,3,.42.28,19,3.94-.14V112.49l15.21.14.14,16.19H117Z"/>
<path class="cls-3" d="M246.33,141.63l-.18-36.7h-2.54v-3.7h-2.25V97.8H239V94.42h-8.82l.19,47.49Z"/><polygon class="cls-3" points="241.37 141.71 246.33 141.71 259.53 141.71 259.53 148.38 244.76 168.08 227.7 169.22 228.13 142.15 241.37 141.71"/>
<path class="cls-1" d="M115.5,36.84l-49,.75a3.14,3.14,0,0,1,.87-2.15,3.78,3.78,0,0,1,2.22-.84,9.08,9.08,0,0,1,2.81,0,3.7,3.7,0,0,1,6.13-1.41,4.84,4.84,0,0,1,1.72-3,4.73,4.73,0,0,1,2.5-1,5.31,5.31,0,0,1,2,.28,5.22,5.22,0,0,1,1.94,1.2,3.38,3.38,0,0,0,1.86-1.2,4,4,0,0,0,.48-1,4.4,4.4,0,0,1,2.27-2.16,3.63,3.63,0,0,1,1.65-.36,3.86,3.86,0,0,1,2.33.92,4.46,4.46,0,0,1,1,2.26,7,7,0,0,0,.09,1.05A3.15,3.15,0,0,0,97.71,32a4.11,4.11,0,0,0,1.58.4,3.86,3.86,0,0,0,1.38-.18,4.26,4.26,0,0,1,1.09-1.12,4.39,4.39,0,0,1,1.44-.67,3.82,3.82,0,0,1,1.48.1,3.88,3.88,0,0,1,1.23.6,10.29,10.29,0,0,1,.92,1.3,9.77,9.77,0,0,1,.77,1.73,1.34,1.34,0,0,0,.91.56,1.44,1.44,0,0,0,1.06-.42c.28-.24.27-.39.56-.63a2,2,0,0,1,.78-.39A1.21,1.21,0,0,1,112.39,35a4.5,4.5,0,0,0,1,.6,5,5,0,0,0,2,.41.44.44,0,0,1,.52.4A.43.43,0,0,1,115.5,36.84Z"/>
<path class="cls-4" d="M134.66,164.49c.13-.07-3.9-11.68-11.56-22.63-.77-1.11-9.2-13.1-12.13-17.55l-.37-.56s6.58,9.46,12.26,18.85C130.53,155.29,134.55,164.57,134.66,164.49Z"/><path class="cls-4" d="M115.07,130.62l-1.56-5.39a2.74,2.74,0,0,1,.44-2.86,1.7,1.7,0,0,1,1.12-.45,1.63,1.63,0,0,1,1,.41,2.91,2.91,0,0,1,.47,3c-.29.92-.56,1.88-.83,2.87C115.46,129.05,115.26,129.84,115.07,130.62Z"/><path class="cls-4" d="M118.47,135.23l-1.56-5.4a2.74,2.74,0,0,1,.45-2.86,1.71,1.71,0,0,1,1.11-.45,1.56,1.56,0,0,1,1,.42,2.91,2.91,0,0,1,.47,3c-.28.92-.56,1.87-.83,2.87C118.86,133.65,118.66,134.45,118.47,135.23Z"/><path class="cls-4" d="M122.41,140.67l-1.2-5.51a2.73,2.73,0,0,1,.62-2.82,1.5,1.5,0,0,1,2.09.14,3,3,0,0,1,.27,3.06c-.35.89-.69,1.83-1,2.79C122.9,139.13,122.64,139.91,122.41,140.67Z"/><path class="cls-4" d="M126.32,147.45l-1-6.37a3.48,3.48,0,0,1,.73-3.23,1.52,1.52,0,0,1,1.16-.39,1.55,1.55,0,0,1,.92.58,3.81,3.81,0,0,1,.16,3.53c-.38,1-.75,2.09-1.12,3.2C126.87,145.68,126.58,146.57,126.32,147.45Z"/><path class="cls-4" d="M130.57,155.16l-.32-7.13a4.16,4.16,0,0,1,1.07-3.5,1.47,1.47,0,0,1,1.19-.32,1.59,1.59,0,0,1,.86.74,4.61,4.61,0,0,1-.21,3.91c-.49,1.09-1,2.23-1.46,3.42C131.3,153.26,130.93,154.22,130.57,155.16Z"/><path class="cls-4" d="M134.61,163.41q-.29-4-.58-8a3.66,3.66,0,0,1,.9-2.33,2.76,2.76,0,0,1,1.54-.84,1.79,1.79,0,0,1,.82.75c.24.46.36,1.18-.42,3.51-.37,1.13-.69,1.84-.91,2.37A23.41,23.41,0,0,0,134.61,163.41Z"/><path class="cls-4" d="M133.74,163.08l-7.14-.35a2.89,2.89,0,0,1-1.94-1.29,3.53,3.53,0,0,1-.56-1.82,1.88,1.88,0,0,1,.77-.82c.44-.22,1.09-.26,3,.89,1,.56,1.54,1,2,1.32A18,18,0,0,0,133.74,163.08Z"/><path class="cls-4" d="M129.36,154.55,123,155a3.24,3.24,0,0,1-3.12-1.17,2,2,0,0,1-.29-1.34,1.72,1.72,0,0,1,.64-1,3.33,3.33,0,0,1,3.47.21c1,.53,2,1.07,3.06,1.6C127.66,153.75,128.52,154.16,129.36,154.55Z"/><path class="cls-4" d="M125.69,147.3l-5.85.52A2.8,2.8,0,0,1,117,146.7a2,2,0,0,1-.25-1.33,1.81,1.81,0,0,1,.6-1,2.89,2.89,0,0,1,3.21.16c.89.52,1.83,1,2.8,1.55C124.14,146.52,124.92,146.92,125.69,147.3Z"/><path class="cls-4" d="M121.67,140.74l-5,.07a2.17,2.17,0,0,1-2.29-1.32,2.3,2.3,0,0,1,0-1.34,2,2,0,0,1,.63-.92,2.18,2.18,0,0,1,2.71.4c.7.58,1.43,1.16,2.19,1.75S121.06,140.31,121.67,140.74Z"/><path class="cls-4" d="M118,134.44l-5,.73a2.11,2.11,0,0,1-2.41-1,2.4,2.4,0,0,1-.19-1.31,2,2,0,0,1,.54-1,2.15,2.15,0,0,1,2.73,0c.75.48,1.54,1,2.36,1.44S117.38,134.09,118,134.44Z"/><path class="cls-4" d="M114.24,129.38l-5,.72a2.13,2.13,0,0,1-2.41-1,2.34,2.34,0,0,1-.19-1.32,2.07,2.07,0,0,1,.54-1,2.18,2.18,0,0,1,2.74,0c.75.48,1.53,1,2.35,1.45S113.6,129,114.24,129.38Z"/><path class="cls-4" d="M110.83,124.26l-4-3.42a2.64,2.64,0,0,1-1.1-2.62,2.13,2.13,0,0,1,.69-1.09,1.64,1.64,0,0,1,1-.29c.86.06,1.64.93,1.93,2.18.24.93.5,1.9.79,2.88C110.34,122.71,110.58,123.5,110.83,124.26Z"/><path class="cls-5" d="M124.35,160q.25,3.12.53,6.24a16.34,16.34,0,0,1-7.95,4.77,16.93,16.93,0,0,1-12.29-1.79,3.08,3.08,0,0,0-2.07-3.54,10.34,10.34,0,0,1-5.94-.64,10.13,10.13,0,0,1-3.16-2.18c-.58-1.24-.48-1.91-.24-2.3.45-.71,1.44-.58,1.83-1.31a2.1,2.1,0,0,0-.19-1.83A7.6,7.6,0,0,0,91.13,156c-1.88-.15-3.11.58-4.56-.14A3.93,3.93,0,0,1,85,154.44a2.92,2.92,0,0,1-1.22-2.39,2.83,2.83,0,0,1,1.78-2.49,1.64,1.64,0,0,0,.66-1.22c0-.36-.24-.67-.7-1.27a8.36,8.36,0,0,0-.8-.93,6.15,6.15,0,0,0-2.82-1.27,12,12,0,0,1-4.36-2,4.68,4.68,0,0,1-2.11-3.33,4.1,4.1,0,0,1,1.31-2.91,6.89,6.89,0,0,1,4.32-1.45c.73,0,1.68.21,3.89,1.5a31.09,31.09,0,0,1,5.4,4,3.75,3.75,0,0,0,2.16.7,3.66,3.66,0,0,0,1.69-.42,3.09,3.09,0,0,1,1.17-2.44,2.93,2.93,0,0,1,1.83-.54,6.13,6.13,0,0,1,3.47,1.48c1,.89,1.22,1.8,2.3,3.8a36.37,36.37,0,0,0,2.11,3.42,1.27,1.27,0,0,0,.94.52,1.23,1.23,0,0,0,.85-.33,4.25,4.25,0,0,1,1.41-1.64,4.14,4.14,0,0,1,1.78-.7,3.57,3.57,0,0,1,1.73.47c1.63.94,2.17,3.16,2.8,5.87.45,2,.44,2.84,1.29,3.7a4.14,4.14,0,0,0,2.16,1.12,1.46,1.46,0,0,0,1-.23c.39-.28.38-.63.66-.89s.75-.43,1.92-.1a6.14,6.14,0,0,1,1.36,1.22A6.63,6.63,0,0,1,124.35,160Z"/><path class="cls-2" d="M77.3,137.22a267.3,267.3,0,0,1,22.38,15.35c7.11,5.41,13.45,10.81,19.08,16"/><path class="cls-2" d="M96.48,138a48.94,48.94,0,0,1,3.2,14.56"/><path class="cls-2" d="M109.4,145.29a43.52,43.52,0,0,1,1.13,16"/><path class="cls-2" d="M121.62,154.44a23.77,23.77,0,0,1-2.86,14.11"/><path class="cls-2" d="M93.47,162.89c2.72,0,5.67-.16,8.82-.47,2.95-.28,5.7-.68,8.24-1.14"/><path class="cls-2" d="M84.12,152.88c2.32.13,4.81.19,7.43.14,2.9,0,5.61-.21,8.13-.45"/><path class="cls-6" d="M152.34,130.1a19.87,19.87,0,0,0-5.28-7.52L144,125l1.06-4.36-21.78-18.3,7.64,32.77,6.39,3.43H132A54.8,54.8,0,0,0,142.41,159Z"/><path class="cls-2" d="M123.24,102.38a161.8,161.8,0,0,1,15,22.17,160.86,160.86,0,0,1,9.3,19.67"/><path class="cls-2" d="M150.55,126.64a31.11,31.11,0,0,1-2.37,7.13,31.46,31.46,0,0,1-2.94,5"/><path class="cls-2" d="M140.76,117.1a34.14,34.14,0,0,1-.39,4.21,32.64,32.64,0,0,1-1.21,5"/><path class="cls-2" d="M125.93,113.91a20.92,20.92,0,0,0,3.67,2.34,21.29,21.29,0,0,0,4.67,1.68"/><path class="cls-2" d="M129.25,129a47.6,47.6,0,0,0,6.61,2.67,46.16,46.16,0,0,0,6.87,1.63"/><path class="cls-2" d="M134.47,145.29a35.62,35.62,0,0,0,5.83,2.49,36.79,36.79,0,0,0,5.51,1.33"/><path class="cls-6" d="M192.78,159.21c2.08-2.26,5-5.37,8.72-9a94.36,94.36,0,0,1,9.25-8.41,63.26,63.26,0,0,1,12.33-7.34,58.92,58.92,0,0,1,6.26-2.4l.93,4.58,1.11-5.84,27.19-6.1-20.64,26.59-7.11-1.14,3.94,3a34.43,34.43,0,0,1-9.5,7.88,35,35,0,0,1-16.75,4.44Z"/><path class="cls-2" d="M258.57,124.72c-7.6,3.9-15.54,8.32-23.72,13.33A363,363,0,0,0,202,160.75"/><path class="cls-2" d="M223.71,134.55a33.43,33.43,0,0,0-.65,12.07"/><path class="cls-2" d="M236.54,129.39a23.33,23.33,0,0,0-1.69,8.74"/><path class="cls-2" d="M251.31,134.08a21.66,21.66,0,0,1-4.32.59,21.06,21.06,0,0,1-4.94-.43"/><path class="cls-2" d="M242,146.39a24.19,24.19,0,0,1-14.51-3.09"/><path class="cls-2" d="M211.52,142.14A58.44,58.44,0,0,0,211,148a56.2,56.2,0,0,0,.14,6.38"/><path class="cls-2" d="M212.39,153.82c2.09.75,4.47,1.54,7.12,2.29,3.47,1,6.62,1.66,9.3,2.16"/><path class="cls-4" d="M177.11,128.67c-.13-.07,3.75-10.76,11.35-20.94.78-1,9.15-12.19,12.06-16.32l.36-.52s-6.54,8.79-12.15,17.51C181.14,120.17,177.23,128.73,177.11,128.67Z"/><path class="cls-4" d="M196.45,97.27l1.48-5a2.27,2.27,0,0,0-.52-2.59,1.88,1.88,0,0,0-1.15-.38,1.68,1.68,0,0,0-1,.4,2.43,2.43,0,0,0-.41,2.77c.31.83.62,1.7.91,2.6C196,95.85,196.24,96.57,196.45,97.27Z"/><path class="cls-4" d="M193.07,101.56l1.47-5A2.29,2.29,0,0,0,194,94a1.93,1.93,0,0,0-1.15-.38,1.86,1.86,0,0,0-1,.4,2.45,2.45,0,0,0-.41,2.78c.31.83.62,1.7.92,2.6C192.63,100.13,192.86,100.86,193.07,101.56Z"/><path class="cls-4" d="M189.15,106.63l1.11-5.06a2.28,2.28,0,0,0-.71-2.55,2,2,0,0,0-1.18-.3,1.9,1.9,0,0,0-1,.47,2.45,2.45,0,0,0-.2,2.8c.37.81.74,1.65,1.1,2.52C188.61,105.23,188.89,105.94,189.15,106.63Z"/><path class="cls-4" d="M185.29,112.91l.88-5.84a2.92,2.92,0,0,0-.82-2.92,1.76,1.76,0,0,0-1.2-.33,1.7,1.7,0,0,0-.93.55,3.14,3.14,0,0,0-.08,3.23c.41.92.81,1.88,1.22,2.89C184.69,111.31,185,112.12,185.29,112.91Z"/><path class="cls-4" d="M181.1,120l.17-6.51a3.55,3.55,0,0,0-1.18-3.16,1.63,1.63,0,0,0-1.23-.25,1.54,1.54,0,0,0-.87.69,3.8,3.8,0,0,0,.31,3.56c.53,1,1,2,1.58,3.08C180.31,118.33,180.72,119.2,181.1,120Z"/><path class="cls-4" d="M177.14,127.67q.21-3.66.41-7.32a3.06,3.06,0,0,0-1-2.1,2.89,2.89,0,0,0-1.6-.73,1.7,1.7,0,0,0-.82.71c-.24.42-.34,1.08.5,3.18.41,1,.76,1.67,1,2.14A19.7,19.7,0,0,1,177.14,127.67Z"/><path class="cls-4" d="M178,127.35l7.32-.5a3,3,0,0,0,2-1.23,3,3,0,0,0,.53-1.67,1.78,1.78,0,0,0-.81-.73c-.44-.19-1.11-.2-3.09.89-1,.54-1.56,1-2,1.25A19.46,19.46,0,0,1,178,127.35Z"/><path class="cls-4" d="M182.34,119.46l6.5.24a3.53,3.53,0,0,0,3.17-1.15,1.63,1.63,0,0,0,.28-1.23,1.58,1.58,0,0,0-.68-.87,3.82,3.82,0,0,0-3.57.27c-1,.52-2,1-3.1,1.54C184.05,118.69,183.19,119.09,182.34,119.46Z"/><path class="cls-4" d="M185.93,112.75l6,.33a3,3,0,0,0,2.91-1.1,1.66,1.66,0,0,0,.23-1.22,1.63,1.63,0,0,0-.64-.88,3.28,3.28,0,0,0-3.29.22c-.91.5-1.86,1-2.84,1.49C187.51,112,186.71,112.39,185.93,112.75Z"/><path class="cls-4" d="M189.91,106.67l5.18-.06a2.29,2.29,0,0,0,2.32-1.27,1.94,1.94,0,0,0,0-1.22,1.74,1.74,0,0,0-.68-.82,2.44,2.44,0,0,0-2.77.43c-.7.55-1.43,1.1-2.2,1.65S190.52,106.26,189.91,106.67Z"/><path class="cls-4" d="M193.51,100.83l5.15.54a2.29,2.29,0,0,0,2.45-1,1.86,1.86,0,0,0,.16-1.21,1.72,1.72,0,0,0-.57-.89,2.43,2.43,0,0,0-2.8.1c-.76.46-1.56.92-2.39,1.38C194.83,100.14,194.16,100.49,193.51,100.83Z"/><path class="cls-4" d="M197.28,96.12l5.15.52a2.27,2.27,0,0,0,2.45-1,1.92,1.92,0,0,0,.16-1.21,1.83,1.83,0,0,0-.58-.89,2.45,2.45,0,0,0-2.8.11c-.76.46-1.55.93-2.38,1.39Z"/><path class="cls-4" d="M200.66,91.36l4.06-3.22a2.29,2.29,0,0,0,1.07-2.42,1.87,1.87,0,0,0-.73-1,1.75,1.75,0,0,0-1-.24,2.45,2.45,0,0,0-1.93,2c-.22.86-.47,1.75-.74,2.65S200.9,90.66,200.66,91.36Z"/><path class="cls-5" d="M181.28,152.45q.93,3,1.87,6a29.46,29.46,0,0,1,8.93.79,11.8,11.8,0,0,0,5,.61,8.6,8.6,0,0,0,4.53-2c.64-.58,2.11-1.9,1.93-3.3a3.93,3.93,0,0,0-.55-1.75,2.19,2.19,0,0,1-.49-1.21,2.52,2.52,0,0,1,1.08-2.07,10.23,10.23,0,0,0,5.26-2.84,10.11,10.11,0,0,0,2.1-3.21c.06-1.37-.28-1.95-.66-2.22-.68-.49-1.54,0-2.19-.52a2.08,2.08,0,0,1-.52-1.77,7.67,7.67,0,0,1,2.93-2.72c1.69-.85,3.09-.64,4.17-1.86a3.93,3.93,0,0,0,.88-1.93,3,3,0,0,0,.22-2.68,2.81,2.81,0,0,0-2.59-1.62,1.69,1.69,0,0,1-1.07-.88c-.13-.34,0-.72.16-1.45a9.71,9.71,0,0,1,.39-1.16,6.08,6.08,0,0,1,2.13-2.24,12.15,12.15,0,0,0,3.27-3.53,4.64,4.64,0,0,0,.69-3.88,4.07,4.07,0,0,0-2.32-2.19,6.85,6.85,0,0,0-4.54.29c-.67.3-1.48.83-3,2.86a31.24,31.24,0,0,0-3.48,5.74,3.73,3.73,0,0,1-1.73,1.47,3.65,3.65,0,0,1-1.72.25,3.14,3.14,0,0,0-2-1.82,2.88,2.88,0,0,0-1.9.2,6.12,6.12,0,0,0-2.66,2.68c-.57,1.2-.44,2.13-.68,4.39a35.62,35.62,0,0,1-.66,4,1.24,1.24,0,0,1-.67.84,1.22,1.22,0,0,1-.91,0,4.27,4.27,0,0,0-3.84-1,3.61,3.61,0,0,0-1.43,1.09c-1.14,1.49-.8,3.75-.36,6.49.33,2,.67,2.8.21,3.92a4.19,4.19,0,0,1-1.57,1.86,1.49,1.49,0,0,1-1,.16c-.46-.11-.59-.44-.95-.58s-.86-.11-1.81.64a6,6,0,0,0-.8,1.65A6.58,6.58,0,0,0,181.28,152.45Z"/><path class="cls-2" d="M216.17,113.51a267.67,267.67,0,0,0-14.9,22.68c-4.52,7.7-8.35,15.1-11.59,22"/><path class="cls-2" d="M198.71,121.5a50,50,0,0,0,.67,7.1,48.83,48.83,0,0,0,1.89,7.59"/><path class="cls-2" d="M189.52,133.14a44.32,44.32,0,0,0,1.65,7.38,43.85,43.85,0,0,0,3.37,7.84"/><path class="cls-2" d="M210.94,143.39c-2.54,1-5.32,2-8.35,2.91-2.83.85-5.53,1.53-8.05,2.06"/><path class="cls-2" d="M215.8,130.58c-2.11,1-4.39,2-6.83,2.95-2.7,1.05-5.28,1.93-7.7,2.66"/><path class="cls-7" d="M28.66,181.8a42.54,42.54,0,0,1,6.05-4.17,42,42,0,0,1,6.76-3.1,15.36,15.36,0,0,1,4.08-.71,15,15,0,0,1,5.07.71c1.29.52,2.71,1,4.26,1.48a47.14,47.14,0,0,0,5.88,1.33,24.91,24.91,0,0,0,14.64-2,50.38,50.38,0,0,1,11.4-8.3,11.52,11.52,0,0,1,4.33-1.34A13,13,0,0,1,97.61,167a57.26,57.26,0,0,0,11.76,3.24,20,20,0,0,0,9.95-.78,20.28,20.28,0,0,0,5.56-3.19,30.58,30.58,0,0,1,4.68-2.91,30.08,30.08,0,0,1,9.89-2.91,61.15,61.15,0,0,0,11.27-1.55,62,62,0,0,0,13.09-4.64c7.61-3.43,12.91-3.07,16.33-2.12,5.4,1.51,6.31,3.73,15.42,7.54a71.22,71.22,0,0,0,9.08,3.09c3.35.9,5.45,1,8,.29s3.08-1.91,7.07-4a41.73,41.73,0,0,1,5.11-2.25,26.07,26.07,0,0,1,5.07.14c2.68.35,3.88,1,6.75,1.41a25.29,25.29,0,0,0,4.19.17,16.48,16.48,0,0,0,6.41-2.18c3.12-1.89,3.85-3.89,7-5.91a17.35,17.35,0,0,1,6-2.36V181.8Z"/><path class="cls-8" d="M160.67,99.51a12.46,12.46,0,0,1,3.84,0,12.31,12.31,0,0,1,3.71,1.22,14.49,14.49,0,0,1,2.75,2.16,14.25,14.25,0,0,1,2.23,2.88,12,12,0,0,1,1.28,8.72,2.51,2.51,0,0,0,.13,2.28,2.6,2.6,0,0,0,2,1.17,3.9,3.9,0,0,1,2.46.41,4.07,4.07,0,0,1,2,2.52,4.28,4.28,0,0,1-.23,2.53,6,6,0,0,0-.62,1.61,3.85,3.85,0,0,0,0,1.24,4.66,4.66,0,0,0,.42,1,6.63,6.63,0,0,0,2.24,2.06c.75.57,1.49,1.81,1.33,4.83-.08,1.44-.17,2.89-.26,4.34l-.88-5.7-3.52-4.64-.57-7.67L175.3,119l-2.1-4-1-8.58-4.66-4.69Z"/><path d="M151.26,121l4.94,5.72v3.88l-9.31,1.86a7.55,7.55,0,0,1,.61-2.54,7.45,7.45,0,0,1,1.25-2,9.3,9.3,0,0,0,2.14-3.66A9.21,9.21,0,0,0,151.26,121Z"/><path class="cls-9" d="M176.39,189.66c4.72,0,9.72,0,15,.33,6.45.35,12.52.95,18.14,1.7a1.4,1.4,0,0,1,1.32,1.47,1.38,1.38,0,0,1-1.32,1.25c-12.55,1.26-23.39,1.9-32,2.24s-20.87.16-45.39-.19a116.69,116.69,0,0,1-14.22-1c-4.44-.6-8.05-1.35-10.46-1.91-.77-.2-1.38-.56-1.38-.92s.82-.92,2.11-1c4.67-.55,9.6-1,14.77-1.29,6.12-.35,11.92-.46,17.38-.39Z"/><path class="cls-10" d="M145.55,132.25a65.43,65.43,0,0,0-13.8,26.24l6.49.28c0-2.21,0-4.43,0-6.65l6.09-.17a15.72,15.72,0,0,0,1.35-2.1C149.31,143,146.74,135.26,145.55,132.25Z"/><path class="cls-10" d="M170.69,132a66.92,66.92,0,0,1,14.07,26.66l-6.6.27.13-6.64-6.09-.18a10.08,10.08,0,0,1-.85-1C166.84,145,169.29,136.06,170.69,132Z"/><path class="cls-11" d="M131.75,158.49l6.37.28c.22,2.6.33,4.82.39,6.55s.08,3.24.08,3.65c0,1.72,0,3.22-.06,4.43-1.68-2.47-3-4.37-3.79-5.52-1.72-2.47-2.5-3.53-2.9-5.25A10.61,10.61,0,0,1,131.75,158.49Z"/><path class="cls-11" d="M184.56,158.49l-6.37.28c-.12,2.61-.16,4.72-.17,6.17,0,1.63,0,2.49-.13,3.78a27.78,27.78,0,0,1-.86,4.73,71.34,71.34,0,0,0,4.55-5.57c2-2.8,2.59-4,2.89-5.25A10.42,10.42,0,0,0,184.56,158.49Z"/><path class="cls-12" d="M180.7,169.05c1.25-.11,3.06-.24,5.25-.37a28.43,28.43,0,0,1,5.73-.11l.23,0a16.67,16.67,0,0,1,3.22.81,4.52,4.52,0,0,1,1.69,1.18,5.35,5.35,0,0,1,1.15,3.8,7.26,7.26,0,0,1-2.35,4.88,68.19,68.19,0,0,1-16.62,8.5c-1.21.43-3.93,1.24-4.12,1.29a68.51,68.51,0,0,1-8.92,1.85c-.29-1-.57-1.93-.84-2.91-.32-1.14-.64-2.26-1-3.38a25,25,0,0,1-2.71,1.59,23.84,23.84,0,0,1-3.12,1.32c-1.07-.37-2.2-.8-3.38-1.3s-2.09-.93-3-1.4a12.74,12.74,0,0,1-.27,3.68l-2.35-.86a7.65,7.65,0,0,0-4.32-1.07,7.52,7.52,0,0,0-4.25,1.61c-2-.59-4.76-1.51-8.1-2.82a47.9,47.9,0,0,1-7.93-3.72c-3.24-2-6.48-4-6.66-7.1a5.54,5.54,0,0,1,1-3.35,6.47,6.47,0,0,1,2.69-2.28c2-.86,3.82-.31,5.93.13a46.44,46.44,0,0,0,8.7.95,10,10,0,0,0,1.12,1.73,10.32,10.32,0,0,0,1.8,1.72v2.33l7.63,6.31h22.71l7.41-5v-3.66l.7-.85Z"/><path class="cls-13" d="M166.45,120.07l-5.11,6.63v3.89l9.31,1.85c.08-.67.14-1.39.18-2.14,0-1.13,0-2.19,0-3.15a23.23,23.23,0,0,1-2.67-3.59A21.59,21.59,0,0,1,166.45,120.07Z"/><path class="cls-14" d="M148.81,106.12a5.63,5.63,0,0,0-3.93,1.61c-1.69,1.82-1.56,4.72-.69,6.54s2.07,1.83,2.35,3.46a5.21,5.21,0,0,1-1,3.64c-1.45,2.2-3.24,2.13-3.65,3.51-.23.81,0,2.16,2.47,4.48"/><path class="cls-14" d="M161.75,100.43a6.13,6.13,0,0,1,8.13.18,12.78,12.78,0,0,1,3.73,4.35c3.46,6.67-.15,12.11,3.26,15,1.62,1.39,3.34.92,4.19,2.68s.11,3.67-.62,5.18"/><path class="cls-15" d="M142,135.25c.09.08,1-1.15,2.52-2.31a13.38,13.38,0,0,1,2.54-1.52,8,8,0,0,0,3.72-4.39,7.18,7.18,0,0,0,.33-2.27,2,2,0,0,1,0-1.44,1.83,1.83,0,0,1,.59-.72,13.18,13.18,0,0,1-1.52-6.53,12.93,12.93,0,0,1,.91-4.35c1.27-1.5,2.53-3,3.8-4.49a17.2,17.2,0,0,0,4.44,5,17,17,0,0,0,6.62,3,11.29,11.29,0,0,1,.33,5.15,8.9,8.9,0,0,0,1.39,5.35,27.61,27.61,0,0,1,1.77,2.31,9.17,9.17,0,0,1,1.24,4l8,11.46a7.67,7.67,0,0,0,5.14-4.58,12.15,12.15,0,0,0,0-5,9.51,9.51,0,0,0-1.43-3.79,9.37,9.37,0,0,0-2.72-2.72l.07-4.47c.09-2.17-.53-3.16-1.1-3.65-.95-.82-2-.48-3.16-1.34a4.72,4.72,0,0,1-1.66-2.9,12.32,12.32,0,0,0-2.33-10.46,13.83,13.83,0,0,0-9.57-5,9.57,9.57,0,0,0-3.88.35,15,15,0,0,0-2.81,1.34c-1,.52-2.09,1.19-3.35,2L148,106a7.85,7.85,0,0,0-1.74,11.09,3.36,3.36,0,0,1,.23,2.59c-.34.81-1,1-1.79,1.87a7.21,7.21,0,0,0-1.61,2.86,3.21,3.21,0,0,0-.3,1.38,3.58,3.58,0,0,0,.71,2.14l.79,1.47a11.09,11.09,0,0,1-.48,2.36A16.46,16.46,0,0,1,142,135.25Z"/><path class="cls-16" d="M152.78,130.27a12.53,12.53,0,0,0-4.31.59,12.67,12.67,0,0,0-2.92,1.39,19.83,19.83,0,0,0,1.34,19.7H171a22.13,22.13,0,0,0-.27-19.92h0a36.29,36.29,0,0,0-3.6-1.38,10.66,10.66,0,0,0-3.59-.24,5.07,5.07,0,0,1-.05,5.77,5.21,5.21,0,0,1-4.07,1.94,6.23,6.23,0,0,1-5.88-2.64A6.37,6.37,0,0,1,152.78,130.27Z"/><path class="cls-11" d="M155.39,107a8.4,8.4,0,0,0-3.16,2.35,9,9,0,0,0-1.69,3.44,12.52,12.52,0,0,0-.14,6.66,12.68,12.68,0,0,0,4.56,6.81,3.89,3.89,0,0,1,.1,3.39.77.77,0,0,1-.1.15c-.19.26-.51.31-1.14.38l-1,.09a5.55,5.55,0,0,0-.16,3.88,5.47,5.47,0,0,0,2.78,3.11,7.23,7.23,0,0,0,3.66.88,7.34,7.34,0,0,0,3.23-.88,6,6,0,0,0,2.15-6.88,3.41,3.41,0,0,1-1.09-.19,3.77,3.77,0,0,1-.85-.4,3.9,3.9,0,0,1-.38-3.83,12.46,12.46,0,0,0,2.73-2.84,12.17,12.17,0,0,0,1.44-2.78,11.29,11.29,0,0,0-.33-5.15,16.77,16.77,0,0,1-8.39-5.11A16.24,16.24,0,0,1,155.39,107Z"/><path class="cls-17" d="M155,126.26a8.8,8.8,0,0,0,3.47.62,9,9,0,0,0,3.69-.92l-.19.54a4.58,4.58,0,0,1-6.77.21Z"/><path class="cls-17" d="M155.39,107A16.71,16.71,0,0,0,166,115.19l.58,2.1A3.39,3.39,0,0,0,166,116a3.22,3.22,0,0,0-1-.93,20.68,20.68,0,0,1-10-6.43,7.17,7.17,0,0,0-1.68.72,7.53,7.53,0,0,0-2.75,2.89,7.32,7.32,0,0,1,4.7-5.29Z"/><path class="cls-8" d="M162.65,103.84c2.78.94,3.75,2.22,4.13,3.17.94,2.32-1,4,.11,6.22.9,1.7,2.43,1.31,3.36,3.43a10.56,10.56,0,0,1,.67,3.16c.07,1.16-.09,1.42,0,2.24a6.58,6.58,0,0,0,1.53,3.13,10.4,10.4,0,0,0,5.36,3.42c-4.41-2.44-5.71-4.83-6-6.66-.32-2.08.67-3.34-.26-5.29-1.07-2.24-2.93-1.8-3.91-3.91-1.12-2.4.73-4.13-.34-6.23C166.84,105.55,165.67,104.41,162.65,103.84Z"/><path class="cls-18" d="M172.93,145.69a9.08,9.08,0,0,1-4.62,6.26H171a22.16,22.16,0,0,0,1.18-2.94A23.34,23.34,0,0,0,172.93,145.69Z"/><path class="cls-18" d="M144.45,146.83c.13-.07.84,1.4,2.22,2.95a14.19,14.19,0,0,0,2.94,2.5H147c-.37-.64-.9-1.61-1.48-2.82A11.56,11.56,0,0,1,144.45,146.83Z"/><path class="cls-17" d="M182.74,158.57l-1.07,0c-.85,0-2,.08-3.48.17,0,1.33-.08,2.4-.12,3.15a5,5,0,0,0,0,1c.05,0,.14-.61.38-1.46a4.54,4.54,0,0,1,.76-1.91,2.9,2.9,0,0,1,1.94-.88C182.2,158.63,182.74,158.59,182.74,158.57Z"/><path class="cls-17" d="M133.85,158.6l1.07,0c.79,0,1.92.07,3.32.14a10.7,10.7,0,0,1,.29,3,3.87,3.87,0,0,1-.19,1.25c-.07,0,0-.64-.2-1.5a3.75,3.75,0,0,0-.76-1.95,2.89,2.89,0,0,0-1.93-.88C134.38,158.66,133.85,158.62,133.85,158.6Z"/><path class="cls-19" d="M138.75,176.23q-.25-12.06-.52-24.11l40.06.2q-.28,12.18-.56,24.36l-8.11,5.41H146.91Z"/><circle class="cls-20" cx="158.02" cy="165.97" r="2.52"/><path d="M191.68,168.57c-.45,0-1.11-.08-1.92-.09a30.45,30.45,0,0,0-3.81.2c-1.21.11-3,.25-5.25.37l-3,3.55v4.08a20.7,20.7,0,0,1,14-8.11Z"/><path d="M123.89,168.47c.87.11,2.18.29,3.77.58,1.76.31,2.4.48,3.49.66a29.21,29.21,0,0,0,5.25.37l2.28,2.88c0,1.09,0,2.18.07,3.27a35.14,35.14,0,0,0-4.81-3.54A36,36,0,0,0,123.89,168.47Z"/><path d="M169.62,182.09H146.91l5,2.74c.94.47,1.95.94,3,1.4s2.31.93,3.38,1.3a23.84,23.84,0,0,0,3.12-1.32,25,25,0,0,0,2.71-1.59Z"/><path class="cls-11" d="M164.17,184.62a17.23,17.23,0,0,1-3.94,2.17,18.2,18.2,0,0,1-10.15.83,2.63,2.63,0,0,0-1.87,1.38,2.43,2.43,0,0,0-.08,1.58,2.85,2.85,0,0,0,1.5,2.09l.55.17c.21.06.6.17,1.06.28a6,6,0,0,0,1.08.2,2.91,2.91,0,0,0,1.13-.24l1.79-.63c1.39-.6,3.42-.35,4.53-.31a14.37,14.37,0,0,0,6.19-1.23Z"/><path class="cls-4" d="M140.74,188.19a3.47,3.47,0,0,0-.42,1.74,3.42,3.42,0,0,0,.53,1.76,7.66,7.66,0,0,0,2.5,1.94,8.5,8.5,0,0,0,4,.77,12.54,12.54,0,0,0,5.06-1.06,7.93,7.93,0,0,1-2.06-.53,3.49,3.49,0,0,1-1.81-1.21,2.59,2.59,0,0,1-.43-1.44,2.72,2.72,0,0,1,1-2l1-.58a7.82,7.82,0,0,0-9.34.57Z"/><path class="cls-11" d="M151.93,184.83l-.14,3a15.76,15.76,0,0,0,6.36-.42c-1-.33-1.93-.7-3-1.13S152.94,185.33,151.93,184.83Z"/><path class="cls-17" d="M158.34,187.53a26.38,26.38,0,0,1-3.77-.14,27.14,27.14,0,0,1-2.74-.44l0,.93a15.74,15.74,0,0,0,3,.19A15,15,0,0,0,158.34,187.53Z"/><path class="cls-17" d="M150.08,187.62l1.1.18a3.21,3.21,0,0,0-1.32.32,3.51,3.51,0,0,0-1.75,2.25,2.81,2.81,0,0,1,2-2.75Z"/><path class="cls-11" d="M168.05,190.61l-2.09.3h-.09c-2.15.34-4.19.75-6.1,1.22l1,.53.64.33.37.19.09.05.06,0,.1,0,.15.07h0c.06,0,.19.06.46.17l5.36-.05.61-2.21Z"/><path class="cls-4" d="M175.44,188.68a6.54,6.54,0,0,1-.81,3.13,6.74,6.74,0,0,1-3.08,2.83,20.89,20.89,0,0,1-9.68-1.4,13,13,0,0,0,2.15.27,8.26,8.26,0,0,0,1.56,0,9.42,9.42,0,0,0,1.45-.29,1.83,1.83,0,0,0,1.15-1.49,1.71,1.71,0,0,0-.31-1.09Z"/><path class="cls-17" d="M166,190.91l-6.19,1.23,2.1,1.1a5.86,5.86,0,0,1,4.09-2.33Z"/></g></g></svg>