<svg xmlns="http://www.w3.org/2000/svg" viewBox="0 0 260.32 182.11"><defs><style>.cls-1{fill:#dff3fc;}.cls-2{fill:#c3e7fb;}.cls-3{fill:#07828e;}.cls-4{fill:#329e46;}.cls-5{fill:#fff;}.cls-6{fill:#9aedae;}.cls-7{fill:#2c7c2e;}</style></defs><title>back_1</title><g id="Layer_2" data-name="Layer 2"><g id="Layer_1-2" data-name="Layer 1"><path class="cls-1" d="M142.74,21a68.48,68.48,0,0,0-5.36,5.55,72.79,72.79,0,0,0-5.84,7.81c-5.1,7.65-5.13,9.22-7.75,12.81a37.1,37.1,0,0,1-11.94,10.45,75.36,75.36,0,0,0-10.3-.38,57.51,57.51,0,0,0-9.62.92A45.28,45.28,0,0,0,76,64.55c-3.59,2.34-7.92,5.19-10.92,10.76a20.84,20.84,0,0,0-2.54,7.25c-.68,5,1,7.48.64,13.6a30.45,30.45,0,0,1-.92,5.76A20.78,20.78,0,0,1,58.53,108a22.91,22.91,0,0,1-6.19,4.79c-8.35,4.9-12.52,7.36-14,8.42-3.47,2.58-6.68,5-9.16,9.35-.72,1.28-4,7-3.56,13.69a44.72,44.72,0,0,1,.23,5.55,36.67,36.67,0,0,1-.86,6.77,32,32,0,0,1-5.56,6.83,34.17,34.17,0,0,1-7,4.85c-3.46,2-8,5.82-12.43,13.82H259.61V21A92.13,92.13,0,0,0,215.19,1C176.85-4.82,148.27,16.65,142.74,21Z"/><polygon class="cls-2" points="208.21 129.67 208.21 71.51 177.62 71.51 177.05 165.46 208.21 164.47 208.21 129.67"/><polygon class="cls-2" points="212.25 82.02 227.27 82.02 227.27 142.46 211.87 142.46 212.25 82.02"/><path class="cls-2" d="M116.33,94.41h23.23V100h8.31v4h2.39v3.52h6.19l.57,74.56H48.62L47.91,147l15.35.28q-.07-12.53-.14-25.06l15.76.14-.14-22.1,8.31.14-.14,3,2,.43L88.6,107l2.53.56L91,110.08l3,.42.28,19,3.94-.14V112.48l15.21.14.14,16.19h3.52Z"/><path class="cls-2" d="M246.41,141.62l-.18-36.7h-2.54v-3.7h-2.25V97.79h-2.36V94.41h-8.82l.19,47.49Z"/><polygon class="cls-2" points="241.45 141.7 246.41 141.7 259.61 141.7 259.61 148.37 244.84 168.07 227.78 169.21 228.21 142.14 241.45 141.7"/><path class="cls-3" d="M131.74,160.43c.13-.07-3.9-11.68-11.56-22.63-.77-1.11-9.2-13.1-12.13-17.55l-.37-.56s6.58,9.46,12.26,18.85C127.61,151.23,131.63,160.51,131.74,160.43Z"/><path class="cls-3" d="M115.15,130.61l-1.56-5.39a2.74,2.74,0,0,1,.44-2.86,1.72,1.72,0,0,1,1.12-.45,1.62,1.62,0,0,1,1,.41,2.9,2.9,0,0,1,.47,3c-.29.92-.56,1.88-.83,2.87S115.34,129.83,115.15,130.61Z"/><path class="cls-3" d="M118.55,135.22l-1.56-5.4a2.74,2.74,0,0,1,.45-2.86,1.69,1.69,0,0,1,1.11-.45,1.61,1.61,0,0,1,1,.42,2.9,2.9,0,0,1,.47,3c-.28.92-.56,1.87-.83,2.87C118.94,133.64,118.74,134.44,118.55,135.22Z"/><path class="cls-3" d="M122.49,140.66l-1.2-5.51a2.72,2.72,0,0,1,.62-2.82,1.49,1.49,0,0,1,2.09.14,3,3,0,0,1,.27,3.06c-.35.89-.69,1.83-1,2.79Q122.84,139.52,122.49,140.66Z"/><path class="cls-3" d="M126.4,147.44l-1-6.37a3.48,3.48,0,0,1,.73-3.23,1.5,1.5,0,0,1,1.16-.39,1.56,1.56,0,0,1,.92.58,3.8,3.8,0,0,1,.16,3.53c-.38,1-.75,2.09-1.12,3.2C127,145.67,126.66,146.56,126.4,147.44Z"/><path class="cls-3" d="M130.65,155.15l-.32-7.13a4.17,4.17,0,0,1,1.07-3.5,1.47,1.47,0,0,1,1.19-.32,1.6,1.6,0,0,1,.86.74,4.62,4.62,0,0,1-.21,3.91c-.49,1.09-1,2.23-1.46,3.42C131.38,153.25,131,154.21,130.65,155.15Z"/><path class="cls-3" d="M134.69,163.4c-.19-2.67-.39-5.33-.58-8a3.7,3.7,0,0,1,.9-2.33,2.8,2.8,0,0,1,1.54-.84,1.81,1.81,0,0,1,.82.75c.24.46.36,1.18-.42,3.51-.37,1.13-.69,1.84-.91,2.37A23.93,23.93,0,0,0,134.69,163.4Z"/><path class="cls-3" d="M133.82,163.07l-7.14-.35a2.91,2.91,0,0,1-1.94-1.29,3.54,3.54,0,0,1-.56-1.82,1.91,1.91,0,0,1,.77-.82c.44-.22,1.09-.26,3,.89a19.07,19.07,0,0,1,2,1.32A17.79,17.79,0,0,0,133.82,163.07Z"/><path class="cls-3" d="M129.44,154.54l-6.36.45a3.22,3.22,0,0,1-3.12-1.17,2,2,0,0,1-.29-1.34,1.71,1.71,0,0,1,.64-1,3.32,3.32,0,0,1,3.47.21c1,.53,2,1.07,3.06,1.6C127.74,153.74,128.6,154.15,129.44,154.54Z"/><path class="cls-3" d="M125.77,147.29l-5.85.52a2.81,2.81,0,0,1-2.84-1.12,2,2,0,0,1-.25-1.33,1.82,1.82,0,0,1,.6-1,2.89,2.89,0,0,1,3.21.16c.89.52,1.83,1,2.8,1.55C124.22,146.51,125,146.91,125.77,147.29Z"/><path class="cls-3" d="M121.75,140.73l-5,.07a2.17,2.17,0,0,1-2.29-1.32,2.35,2.35,0,0,1,0-1.34,2,2,0,0,1,.63-.92,2.19,2.19,0,0,1,2.71.4c.7.58,1.43,1.16,2.19,1.75S121.14,140.3,121.75,140.73Z"/><path class="cls-3" d="M118.08,134.43l-5,.73a2.11,2.11,0,0,1-2.41-1,2.45,2.45,0,0,1-.19-1.31,2,2,0,0,1,.54-1,2.15,2.15,0,0,1,2.73,0c.75.48,1.54,1,2.36,1.44S117.46,134.08,118.08,134.43Z"/><path class="cls-3" d="M114.32,129.37l-5,.72a2.13,2.13,0,0,1-2.41-1,2.3,2.3,0,0,1-.19-1.32,2,2,0,0,1,.54-1,2.17,2.17,0,0,1,2.74,0c.75.48,1.53,1,2.35,1.45S113.68,129,114.32,129.37Z"/><path class="cls-3" d="M110.91,124.25l-4-3.42a2.64,2.64,0,0,1-1.1-2.62,2.07,2.07,0,0,1,.69-1.09,1.68,1.68,0,0,1,1-.29c.86.06,1.64.93,1.93,2.18.24.93.5,1.9.79,2.88C110.42,122.7,110.66,123.49,110.91,124.25Z"/><path class="cls-4" d="M124.43,160c.17,2.08.34,4.16.53,6.24A16.38,16.38,0,0,1,117,171a16.94,16.94,0,0,1-12.29-1.79,3.08,3.08,0,0,0-2.07-3.54,10.33,10.33,0,0,1-5.94-.64,10.15,10.15,0,0,1-3.16-2.18c-.58-1.24-.48-1.91-.24-2.3.45-.71,1.44-.58,1.83-1.31a2.11,2.11,0,0,0-.19-1.83A7.59,7.59,0,0,0,91.21,156c-1.88-.15-3.11.58-4.56-.14a3.91,3.91,0,0,1-1.57-1.42A2.9,2.9,0,0,1,83.86,152a2.82,2.82,0,0,1,1.78-2.49,1.65,1.65,0,0,0,.66-1.22c0-.36-.24-.67-.7-1.27a7.85,7.85,0,0,0-.8-.93A6.18,6.18,0,0,0,82,144.86a12.11,12.11,0,0,1-4.36-2,4.68,4.68,0,0,1-2.11-3.33,4.11,4.11,0,0,1,1.31-2.91,6.89,6.89,0,0,1,4.32-1.45c.73,0,1.68.21,3.89,1.5a31.06,31.06,0,0,1,5.4,4,3.65,3.65,0,0,0,3.85.28,3.09,3.09,0,0,1,1.17-2.44,2.92,2.92,0,0,1,1.83-.54,6.13,6.13,0,0,1,3.47,1.48c1,.89,1.22,1.8,2.3,3.8a35.29,35.29,0,0,0,2.11,3.42,1.3,1.3,0,0,0,.94.52,1.26,1.26,0,0,0,.85-.33,4.3,4.3,0,0,1,1.41-1.64,4.11,4.11,0,0,1,1.78-.7,3.62,3.62,0,0,1,1.73.47c1.63.94,2.17,3.16,2.8,5.87.45,2,.44,2.84,1.29,3.7a4.14,4.14,0,0,0,2.16,1.12,1.41,1.41,0,0,0,1-.23c.39-.28.38-.63.66-.89s.75-.43,1.92-.1a6.32,6.32,0,0,1,1.36,1.22A6.63,6.63,0,0,1,124.43,160Z"/><path class="cls-5" d="M77.38,137.21a266.76,266.76,0,0,1,22.38,15.35c7.11,5.41,13.45,10.81,19.08,16"/><path class="cls-5" d="M96.56,138a49.14,49.14,0,0,1,3.2,14.56"/><path class="cls-5" d="M109.48,145.28a43.58,43.58,0,0,1,1.13,16"/><path class="cls-5" d="M121.7,154.43a23.74,23.74,0,0,1-2.86,14.11"/><path class="cls-5" d="M93.55,162.88c2.72,0,5.67-.16,8.82-.47,2.95-.28,5.7-.68,8.24-1.14"/><path class="cls-5" d="M84.2,152.87c2.32.13,4.81.19,7.43.14,2.9,0,5.61-.21,8.13-.45"/><path class="cls-6" d="M163.89,154.25A68,68,0,0,0,150.22,126q-1.51-1.83-3.08-3.45L144.08,125l1.06-4.36-21.78-18.3L131,135.1l6.39,3.43h-5.31a81.7,81.7,0,0,0,4.12,10.78,80.8,80.8,0,0,0,8.46,14.15Z"/><path class="cls-5" d="M123.32,102.37A218.34,218.34,0,0,1,141.81,132a224.26,224.26,0,0,1,11.46,26.28"/><path class="cls-5" d="M150.63,126.63a31,31,0,0,1-2.37,7.13,31.35,31.35,0,0,1-2.94,5"/><path class="cls-5" d="M140.84,117.09a32.33,32.33,0,0,1-1.6,9.21"/><path class="cls-5" d="M126,113.9a20.74,20.74,0,0,0,3.67,2.34,21.52,21.52,0,0,0,4.67,1.68"/><path class="cls-5" d="M129.33,129a47.33,47.33,0,0,0,6.61,2.67,46.35,46.35,0,0,0,6.87,1.63"/><path class="cls-5" d="M134.35,144.94a41.19,41.19,0,0,0,6.84,1.35,44,44,0,0,0,6.29.27"/><path class="cls-6" d="M192.86,159.2c2.08-2.26,5-5.37,8.72-9a94.55,94.55,0,0,1,9.25-8.41,62.93,62.93,0,0,1,12.33-7.34,58.5,58.5,0,0,1,6.26-2.4l.93,4.58,1.11-5.84,27.19-6.1L238,151.28l-7.11-1.14,3.94,3a34.32,34.32,0,0,1-9.5,7.88,35,35,0,0,1-16.75,4.44Z"/><path class="cls-5" d="M258.65,124.71c-7.6,3.9-15.54,8.32-23.72,13.33a364.53,364.53,0,0,0-32.85,22.7"/><path class="cls-5" d="M223.79,134.54a33.36,33.36,0,0,0-.65,12.07"/><path class="cls-5" d="M236.62,129.38a23.39,23.39,0,0,0-1.69,8.74"/><path class="cls-5" d="M251.39,134.07a21.7,21.7,0,0,1-4.32.59,21,21,0,0,1-4.94-.43"/><path class="cls-5" d="M242.08,146.38a24.18,24.18,0,0,1-14.51-3.09"/><path class="cls-5" d="M211.6,142.13a57.44,57.44,0,0,0-.52,5.86,56.57,56.57,0,0,0,.14,6.38"/><path class="cls-5" d="M212.47,153.81c2.09.75,4.47,1.54,7.12,2.29,3.47,1,6.62,1.66,9.3,2.16"/><path class="cls-3" d="M172.43,146.14c-.17-.12,5.13-17.57,15.53-34.19,1.07-1.63,12.52-19.89,16.5-26.63l.49-.85S196,98.81,188.33,113.05C178,132.26,172.6,146.23,172.43,146.14Z"/><path class="cls-3" d="M196.48,98.4l1.48-5a2.26,2.26,0,0,0-.52-2.59,1.83,1.83,0,0,0-1.15-.38,1.67,1.67,0,0,0-1,.4,2.43,2.43,0,0,0-.41,2.77c.31.83.62,1.7.91,2.6S196.27,97.7,196.48,98.4Z"/><path class="cls-3" d="M193.15,103.61l1.47-5a2.29,2.29,0,0,0-.54-2.56,2,2,0,0,0-1.15-.38,1.84,1.84,0,0,0-1,.4,2.45,2.45,0,0,0-.41,2.78c.31.83.62,1.7.92,2.6C192.71,102.18,192.94,102.91,193.15,103.61Z"/><path class="cls-3" d="M189.23,110l1.11-5.06a2.27,2.27,0,0,0-.71-2.55,2,2,0,0,0-1.18-.3,1.9,1.9,0,0,0-1,.47,2.44,2.44,0,0,0-.2,2.8c.37.81.74,1.65,1.1,2.52C188.69,108.64,189,109.35,189.23,110Z"/><path class="cls-3" d="M185.37,116.52l.88-5.84a2.92,2.92,0,0,0-.82-2.92,1.77,1.77,0,0,0-1.2-.33,1.71,1.71,0,0,0-.93.55,3.15,3.15,0,0,0-.08,3.23c.41.92.81,1.88,1.22,2.89C184.77,114.92,185.08,115.73,185.37,116.52Z"/><path class="cls-3" d="M181.49,123.45l.17-6.51a3.54,3.54,0,0,0-1.18-3.16,1.66,1.66,0,0,0-1.23-.25,1.56,1.56,0,0,0-.87.69,3.81,3.81,0,0,0,.31,3.56c.53,1,1,2,1.58,3.08Z"/><path class="cls-3" d="M175.61,137.05q.21-3.66.41-7.32a3,3,0,0,0-1-2.1,2.84,2.84,0,0,0-1.6-.73,1.72,1.72,0,0,0-.82.71c-.24.42-.34,1.08.5,3.18.41,1,.76,1.67,1,2.14A19.93,19.93,0,0,1,175.61,137.05Z"/><path class="cls-3" d="M177.39,133.25l7.32-.5a2.94,2.94,0,0,0,2.53-2.9,1.85,1.85,0,0,0-.81-.73c-.44-.19-1.11-.2-3.09.89-1,.54-1.56,1-2,1.25A19,19,0,0,1,177.39,133.25Z"/><path class="cls-3" d="M183.06,121.26l6.5.24a3.58,3.58,0,0,0,3.17-1.15,1.68,1.68,0,0,0,.28-1.23,1.56,1.56,0,0,0-.68-.87,3.8,3.8,0,0,0-3.57.27c-1,.51-2,1-3.1,1.54C184.77,120.49,183.91,120.89,183.06,121.26Z"/><path class="cls-3" d="M186.9,114l6,.33a3,3,0,0,0,2.91-1.1A1.64,1.64,0,0,0,196,112a1.58,1.58,0,0,0-.64-.88,3.29,3.29,0,0,0-3.29.22c-.91.5-1.86,1-2.84,1.49C188.48,113.22,187.68,113.61,186.9,114Z"/><path class="cls-3" d="M191,107.42l5.18-.06a2.26,2.26,0,0,0,2.32-1.27,2,2,0,0,0,0-1.22,1.75,1.75,0,0,0-.68-.82,2.45,2.45,0,0,0-2.77.43c-.7.55-1.43,1.1-2.2,1.65S191.61,107,191,107.42Z"/><path class="cls-3" d="M195.18,100.82l5.15.54a2.29,2.29,0,0,0,2.45-1,1.81,1.81,0,0,0,.16-1.21,1.7,1.7,0,0,0-.57-.89,2.44,2.44,0,0,0-2.8.1c-.76.46-1.56.92-2.39,1.38S195.83,100.48,195.18,100.82Z"/><path class="cls-3" d="M198.18,95.8l5.15.52a2.27,2.27,0,0,0,2.45-1,1.88,1.88,0,0,0,.16-1.21,1.78,1.78,0,0,0-.58-.89,2.46,2.46,0,0,0-2.8.11c-.76.46-1.55.93-2.38,1.39Z"/><path class="cls-3" d="M200.74,91.35l4.06-3.22a2.3,2.3,0,0,0,1.07-2.42,1.84,1.84,0,0,0-.73-1,1.75,1.75,0,0,0-1-.24,2.45,2.45,0,0,0-1.93,2c-.22.86-.47,1.75-.74,2.65S201,90.65,200.74,91.35Z"/><path class="cls-4" d="M181.36,152.44q.93,3,1.87,6a29.5,29.5,0,0,1,8.93.79,11.79,11.79,0,0,0,5,.61,8.59,8.59,0,0,0,4.53-2c.64-.58,2.11-1.9,1.93-3.3a3.87,3.87,0,0,0-.55-1.75,2.23,2.23,0,0,1-.49-1.21,2.51,2.51,0,0,1,1.08-2.07,10,10,0,0,0,7.36-6c.06-1.37-.28-2-.66-2.22-.68-.49-1.54,0-2.19-.52a2.09,2.09,0,0,1-.52-1.77,7.66,7.66,0,0,1,2.93-2.72c1.69-.85,3.09-.64,4.17-1.86a4,4,0,0,0,.88-1.93,3,3,0,0,0,.22-2.68,2.81,2.81,0,0,0-2.59-1.62,1.69,1.69,0,0,1-1.07-.88c-.13-.34,0-.72.16-1.45a12.15,12.15,0,0,1,.39-1.16,6.1,6.1,0,0,1,2.13-2.24,12.24,12.24,0,0,0,3.27-3.53,4.62,4.62,0,0,0,.69-3.88,4,4,0,0,0-2.32-2.19,6.88,6.88,0,0,0-4.54.29c-.67.3-1.48.83-3,2.86a31.37,31.37,0,0,0-3.48,5.74,3.71,3.71,0,0,1-1.73,1.47,3.6,3.6,0,0,1-1.72.25,3.12,3.12,0,0,0-2-1.82,2.89,2.89,0,0,0-1.9.2,6.1,6.1,0,0,0-2.66,2.68c-.57,1.2-.44,2.13-.68,4.39a34,34,0,0,1-.66,4,1.21,1.21,0,0,1-.67.84,1.2,1.2,0,0,1-.91,0,4.27,4.27,0,0,0-3.84-1,3.65,3.65,0,0,0-1.43,1.09c-1.14,1.49-.8,3.75-.36,6.49.33,2,.67,2.8.21,3.92a4.18,4.18,0,0,1-1.57,1.86,1.45,1.45,0,0,1-1,.16c-.46-.11-.59-.44-.95-.58s-.86-.11-1.81.64a6,6,0,0,0-.8,1.65A6.59,6.59,0,0,0,181.36,152.44Z"/><path class="cls-5" d="M216.25,113.5a266,266,0,0,0-14.9,22.68c-4.52,7.7-8.35,15.1-11.59,22"/><path class="cls-5" d="M198.79,121.49a49.9,49.9,0,0,0,2.56,14.69"/><path class="cls-5" d="M189.6,133.13a44.46,44.46,0,0,0,1.65,7.38,43.81,43.81,0,0,0,3.37,7.84"/><path class="cls-5" d="M211,143.38c-2.54,1-5.32,2-8.35,2.91-2.83.85-5.53,1.53-8,2.06"/><path class="cls-5" d="M215.88,130.57c-2.11,1-4.39,2-6.83,3-2.7,1-5.28,1.93-7.7,2.66"/><path class="cls-7" d="M28.74,181.79a42.66,42.66,0,0,1,12.81-7.27,15.25,15.25,0,0,1,4.08-.71,14.78,14.78,0,0,1,5.07.71c1.29.52,2.71,1,4.26,1.48a47.17,47.17,0,0,0,5.88,1.33,24.93,24.93,0,0,0,14.64-2,50.31,50.31,0,0,1,11.4-8.3,11.57,11.57,0,0,1,4.33-1.34,13.06,13.06,0,0,1,6.48,1.3,57.11,57.11,0,0,0,11.76,3.24,19.91,19.91,0,0,0,10-.78,20.24,20.24,0,0,0,5.56-3.19,31,31,0,0,1,4.68-2.91,30,30,0,0,1,9.89-2.91,61.14,61.14,0,0,0,11.27-1.55,62.18,62.18,0,0,0,13.09-4.64c7.61-3.43,12.91-3.07,16.33-2.12,5.4,1.51,6.31,3.73,15.42,7.54a70.86,70.86,0,0,0,9.08,3.09c3.35.9,5.45,1,8,.29s3.08-1.91,7.07-4a43,43,0,0,1,5.11-2.25,26,26,0,0,1,5.07.14c2.68.35,3.88,1,6.75,1.41a25.5,25.5,0,0,0,4.19.17,16.61,16.61,0,0,0,6.41-2.18c3.12-1.89,3.85-3.89,7-5.91a17.58,17.58,0,0,1,6-2.36v33.72Z"/><path class="cls-5" d="M156.67,136.32A40.36,40.36,0,0,1,154,145a39.3,39.3,0,0,1-3.35,6.11"/></g></g></svg>