<svg xmlns="http://www.w3.org/2000/svg" viewBox="0 0 49.41 11.64"><defs><style>.cls-1{fill:#dff3fc;}</style></defs><title>cloud1</title><g id="Layer_2" data-name="Layer 2"><g id="Layer_1-2" data-name="Layer 1"><path class="cls-1" d="M49,10.89,0,11.64A3.14,3.14,0,0,1,.87,9.49a3.83,3.83,0,0,1,2.22-.84,8.83,8.83,0,0,1,2.81,0A3.69,3.69,0,0,1,12,7.24a4.82,4.82,0,0,1,1.72-3,4.7,4.7,0,0,1,2.5-1,5.42,5.42,0,0,1,2,.28,5.15,5.15,0,0,1,1.94,1.2,3.36,3.36,0,0,0,1.86-1.2,3.84,3.84,0,0,0,.48-1A4.43,4.43,0,0,1,24.8.36,3.61,3.61,0,0,1,26.45,0a3.84,3.84,0,0,1,2.33.92,4.42,4.42,0,0,1,1,2.26,6.2,6.2,0,0,0,.09,1.05,3.16,3.16,0,0,0,1.34,1.82,4.1,4.1,0,0,0,1.58.4,4,4,0,0,0,1.38-.18,4.15,4.15,0,0,1,1.09-1.12,4.31,4.31,0,0,1,1.44-.67,3.88,3.88,0,0,1,1.48.1,4,4,0,0,1,1.23.6,9.84,9.84,0,0,1,.92,1.3,9.92,9.92,0,0,1,.77,1.73,1.3,1.3,0,0,0,.91.56,1.44,1.44,0,0,0,1.06-.42c.28-.24.27-.39.56-.63a1.91,1.91,0,0,1,.78-.39,1.21,1.21,0,0,1,1.48,1.72,4.82,4.82,0,0,0,1,.6,5.08,5.08,0,0,0,2,.41.44.44,0,0,1,.51.35.09.09,0,0,1,0,.05A.43.43,0,0,1,49,10.89Z"/></g></g></svg>