<svg xmlns="http://www.w3.org/2000/svg" viewBox="0 0 49.39 11.65"><defs><style>.cls-1{fill:#fff;}</style></defs><title>cloud2</title><g id="Layer_2" data-name="Layer 2"><g id="Layer_1-2" data-name="Layer 1"><path class="cls-1" d="M49,10.9,0,11.65A3.13,3.13,0,0,1,.86,9.5a3.76,3.76,0,0,1,2.22-.84,9.52,9.52,0,0,1,2.82,0,3.7,3.7,0,0,1,4.72-2.28,3.64,3.64,0,0,1,1.4.87,4.9,4.9,0,0,1,1.73-3,4.78,4.78,0,0,1,2.5-1,5.15,5.15,0,0,1,3.9,1.48A3.25,3.25,0,0,0,22,3.53a4.15,4.15,0,0,0,.47-1A4.45,4.45,0,0,1,24.77.35,3.81,3.81,0,0,1,26.43,0a3.76,3.76,0,0,1,2.32.91,4.45,4.45,0,0,1,1,2.27,8.26,8.26,0,0,0,.09,1A3.13,3.13,0,0,0,31.21,6a4.2,4.2,0,0,0,1.59.41,4,4,0,0,0,1.37-.18,4.34,4.34,0,0,1,2.53-1.8,3.88,3.88,0,0,1,1.48.11,3.8,3.8,0,0,1,1.23.6,7.84,7.84,0,0,1,.92,1.3,9.13,9.13,0,0,1,.77,1.72,1.34,1.34,0,0,0,.92.57,1.52,1.52,0,0,0,1-.42c.29-.25.28-.4.57-.64a2,2,0,0,1,.77-.38A1.21,1.21,0,0,1,45.89,9a4.82,4.82,0,0,0,1,.6,5.08,5.08,0,0,0,2,.41.41.41,0,0,1,.18.8H49Z"/></g></g></svg>