<svg xmlns="http://www.w3.org/2000/svg" viewBox="0 0 79.96 95.88"><defs><style>.cls-1{fill:#f9a17b;}.cls-2{fill:#020202;}.cls-3{fill:#ce5332;}.cls-4{fill:#bcbbbb;}.cls-5{fill:#f2b6ca;}.cls-6{fill:#352b28;}.cls-7{fill:none;stroke:#2d2826;}.cls-11,.cls-7{stroke-miterlimit:10;stroke-width:0.25px;}.cls-8{fill:#2d2826;}.cls-9{fill:#f4d0db;}.cls-10{fill:#915a6f;}.cls-11{fill:#fff;stroke:#000;}.cls-12{fill:#9b9d9e;}.cls-13{fill:#07828e;}</style></defs><title>girl</title><g id="Layer_2" data-name="Layer 2"><g id="Layer_1-2" data-name="Layer 1"><path class="cls-1" d="M13.72,59.64l6.37.28c.22,2.6.33,4.82.39,6.55s.08,3.24.08,3.65c0,1.72,0,3.22-.06,4.43-1.68-2.47-3-4.37-3.79-5.52-1.72-2.47-2.5-3.53-2.9-5.25A10.68,10.68,0,0,1,13.72,59.64Z"/><path d="M33.23,22.15l4.94,5.72v3.88l-9.31,1.86a7.62,7.62,0,0,1,.61-2.54,7.4,7.4,0,0,1,1.25-2,9.22,9.22,0,0,0,2.14-3.66A9,9,0,0,0,33.23,22.15Z"/><path class="cls-2" d="M48.42,21.22l-5.11,6.63v3.89l9.31,1.85c.08-.67.14-1.39.18-2.14V28.3a24.05,24.05,0,0,1-2.67-3.59A22.56,22.56,0,0,1,48.42,21.22Z"/><path class="cls-3" d="M15.82,59.75h1.07c.79,0,1.92.07,3.32.14a10.44,10.44,0,0,1,.29,3,3.79,3.79,0,0,1-.19,1.25c-.07,0,0-.64-.2-1.5a3.65,3.65,0,0,0-.76-2,2.89,2.89,0,0,0-1.93-.88A10.68,10.68,0,0,1,15.82,59.75Z"/><path class="cls-4" d="M42.64.66a12.24,12.24,0,0,1,7.55,1.22A14.4,14.4,0,0,1,52.94,4a13.8,13.8,0,0,1,2.23,2.88,12,12,0,0,1,1.28,8.72,2.55,2.55,0,0,0,.13,2.28,2.63,2.63,0,0,0,2,1.17A3.88,3.88,0,0,1,61,19.5,4,4,0,0,1,63,22a4.29,4.29,0,0,1-.23,2.53,6,6,0,0,0-.62,1.61,4.29,4.29,0,0,0,0,1.24,4.61,4.61,0,0,0,.42,1,6.8,6.8,0,0,0,2.24,2.06c.75.57,1.49,1.81,1.33,4.83-.08,1.44-.17,2.89-.26,4.34L65,33.93l-3.52-4.64L61,21.62l-3.68-1.47-2.1-4-1-8.58L49.51,2.88Z"/><path class="cls-5" d="M27.52,33.4a65.44,65.44,0,0,0-13.8,26.24l6.49.28V53.27l6.09-.17A15,15,0,0,0,27.65,51C31.28,44.15,28.71,36.41,27.52,33.4Z"/><path class="cls-5" d="M52.66,33.15A66.86,66.86,0,0,1,66.73,59.81l-6.6.27.13-6.64-6.09-.18a11.51,11.51,0,0,1-.85-1C48.81,46.15,51.26,37.21,52.66,33.15Z"/><path class="cls-1" d="M66.53,59.64l-6.37.28C60,62.53,60,64.64,60,66.09a33.55,33.55,0,0,1-.13,3.78A27.14,27.14,0,0,1,59,74.6,71.28,71.28,0,0,0,63.55,69c2-2.8,2.59-4,2.89-5.25A10.31,10.31,0,0,0,66.53,59.64Z"/><path class="cls-6" d="M62.67,70.2c1.25-.11,3.06-.24,5.25-.37a28.14,28.14,0,0,1,5.73-.11h.23a16.16,16.16,0,0,1,3.22.81,4.46,4.46,0,0,1,1.69,1.18,5.32,5.32,0,0,1,1.15,3.8,7.21,7.21,0,0,1-2.35,4.88A68.13,68.13,0,0,1,61,88.89c-1.21.43-3.93,1.24-4.12,1.29A69.56,69.56,0,0,1,47.93,92c-.29-1-.57-1.93-.84-2.91-.32-1.14-.64-2.26-1-3.38a25.28,25.28,0,0,1-2.71,1.59,24.52,24.52,0,0,1-3.12,1.32c-1.07-.37-2.2-.8-3.38-1.3s-2.09-.93-3-1.4a12.66,12.66,0,0,1-.27,3.68l-2.35-.86a7.6,7.6,0,0,0-4.32-1.07,7.5,7.5,0,0,0-4.25,1.61c-2-.59-4.76-1.51-8.1-2.82a48.54,48.54,0,0,1-7.93-3.72c-3.24-2-6.48-4-6.66-7.1a5.62,5.62,0,0,1,1-3.35A6.4,6.4,0,0,1,3.69,70c2-.86,3.82-.31,5.93.13a46.34,46.34,0,0,0,8.7,1,9.76,9.76,0,0,0,2.92,3.45V76.9l7.63,6.31H51.58l7.41-5V74.55l.7-.85Z"/><path class="cls-7" d="M30.78,7.27a5.61,5.61,0,0,0-3.93,1.61c-1.69,1.82-1.56,4.72-.69,6.54s2.07,1.83,2.35,3.46a5.17,5.17,0,0,1-1,3.64c-1.45,2.2-3.24,2.13-3.65,3.51-.23.81,0,2.16,2.47,4.48"/><path class="cls-7" d="M43.72,1.58a6.12,6.12,0,0,1,8.13.18,12.81,12.81,0,0,1,3.73,4.35c3.46,6.67-.15,12.11,3.26,15,1.62,1.39,3.34.92,4.19,2.68s.11,3.67-.62,5.18"/><path class="cls-8" d="M24.58,37.06a12.51,12.51,0,0,1,2.17-2.75A28.1,28.1,0,0,1,29,32.57c1.6-1.28,3.12-2.47,3.72-4.39a7,7,0,0,0,.33-2.27,2,2,0,0,1,0-1.44,1.81,1.81,0,0,1,.59-.72,13.25,13.25,0,0,1-1.52-6.53,13,13,0,0,1,.91-4.35c1.27-1.5,2.53-3,3.8-4.49a17.27,17.27,0,0,0,4.44,5,17.15,17.15,0,0,0,6.62,3,11.23,11.23,0,0,1,.33,5.15,9,9,0,0,0,1.39,5.35,28.25,28.25,0,0,1,1.77,2.31,9.14,9.14,0,0,1,1.24,4l8,11.46a7.67,7.67,0,0,0,5.14-4.58,12,12,0,0,0,0-5,9.4,9.4,0,0,0-1.43-3.79,9.28,9.28,0,0,0-2.72-2.72l.07-4.47c.09-2.17-.53-3.16-1.1-3.65-1-.82-2-.48-3.16-1.34a4.69,4.69,0,0,1-1.66-2.9A12.33,12.33,0,0,0,53.46,5.74a13.79,13.79,0,0,0-9.57-5A9.62,9.62,0,0,0,40,1.09,15.41,15.41,0,0,0,37.2,2.43c-1,.52-2.09,1.19-3.35,2L30,7.15a7.85,7.85,0,0,0-1.84,11l.1.14a3.34,3.34,0,0,1,.23,2.59c-.34.81-1,1-1.79,1.87a7.19,7.19,0,0,0-1.61,2.86,3.26,3.26,0,0,0-.3,1.38,3.59,3.59,0,0,0,.71,2.14l.79,1.47c-.13.76-.29,1.54-.48,2.36A39.88,39.88,0,0,1,24.58,37.06Z"/><path class="cls-9" d="M34.75,31.42a12.35,12.35,0,0,0-4.31.59,12.62,12.62,0,0,0-2.92,1.39,19.86,19.86,0,0,0,1.34,19.7H53a22.08,22.08,0,0,0-.27-19.92h0a34.71,34.71,0,0,0-3.6-1.38,10.57,10.57,0,0,0-3.59-.24,5.06,5.06,0,0,1,0,5.77,5.22,5.22,0,0,1-4.07,1.94,6.24,6.24,0,0,1-5.88-2.64A6.38,6.38,0,0,1,34.75,31.42Z"/><path class="cls-1" d="M37.36,8.15A8.43,8.43,0,0,0,34.2,10.5a9,9,0,0,0-1.69,3.44,12.65,12.65,0,0,0-.14,6.66,12.72,12.72,0,0,0,4.56,6.81A3.88,3.88,0,0,1,37,30.8a.65.65,0,0,1-.1.15c-.19.26-.51.31-1.14.38l-1,.09a5.57,5.57,0,0,0-.16,3.88,5.49,5.49,0,0,0,2.78,3.11,7.16,7.16,0,0,0,6.89,0,6,6,0,0,0,2.15-6.88,3.38,3.38,0,0,1-1.09-.19,3.88,3.88,0,0,1-.85-.4,3.92,3.92,0,0,1-.38-3.83,12.47,12.47,0,0,0,2.73-2.84,12.23,12.23,0,0,0,1.44-2.78A11.23,11.23,0,0,0,48,16.34a16.85,16.85,0,0,1-8.39-5.11A16.39,16.39,0,0,1,37.36,8.15Z"/><path class="cls-3" d="M37,27.41a8.81,8.81,0,0,0,3.47.62,9.09,9.09,0,0,0,3.69-.92l-.19.54a4.57,4.57,0,0,1-6.45.5l-.32-.29Z"/><path class="cls-3" d="M37.36,8.15A16.73,16.73,0,0,0,48,16.34l.58,2.1A3.35,3.35,0,0,0,48,17.15a3.07,3.07,0,0,0-1-.93A20.73,20.73,0,0,1,37,9.79a7.34,7.34,0,0,0-1.68.72,7.56,7.56,0,0,0-2.75,2.89,7.33,7.33,0,0,1,4.7-5.29Z"/><path class="cls-4" d="M44.62,5c2.78.94,3.75,2.22,4.13,3.17.94,2.32-1,4,.11,6.22.9,1.7,2.43,1.31,3.36,3.43A10.37,10.37,0,0,1,52.89,21c.07,1.16-.09,1.42,0,2.24a6.62,6.62,0,0,0,1.53,3.13,10.41,10.41,0,0,0,5.36,3.42c-4.41-2.44-5.71-4.83-6-6.66-.32-2.08.67-3.34-.26-5.29-1.07-2.24-2.93-1.8-3.91-3.91-1.12-2.4.73-4.13-.34-6.23C48.81,6.7,47.64,5.56,44.62,5Z"/><path class="cls-10" d="M54.9,46.84a9.09,9.09,0,0,1-4.62,6.26H53a20.74,20.74,0,0,0,1.18-2.94A23.77,23.77,0,0,0,54.9,46.84Z"/><path class="cls-10" d="M26.42,48c.13-.07.84,1.4,2.22,3a14.37,14.37,0,0,0,2.94,2.5H29c-.37-.64-.9-1.61-1.48-2.82A11.81,11.81,0,0,1,26.42,48Z"/><path class="cls-3" d="M64.71,59.72H63.64c-.85,0-2,.08-3.48.17,0,1.33-.08,2.4-.12,3.15a5.57,5.57,0,0,0,0,1c.05,0,.14-.61.38-1.46a4.68,4.68,0,0,1,.76-1.91,2.92,2.92,0,0,1,1.94-.88A11.38,11.38,0,0,0,64.71,59.72Z"/><path class="cls-11" d="M20.72,77.38q-.24-12.06-.52-24.11l40.06.2Q60,65.65,59.7,77.83l-8.11,5.41H28.88Z"/><circle class="cls-12" cx="39.99" cy="67.12" r="2.52"/><path d="M73.65,69.72c-.45,0-1.11-.08-1.92-.09a30.4,30.4,0,0,0-3.81.2c-1.21.11-3,.25-5.25.37l-3,3.55v4.08a20.72,20.72,0,0,1,14-8.11Z"/><path d="M5.86,69.62c.87.11,2.18.29,3.77.58,1.76.31,2.4.48,3.49.66a29.85,29.85,0,0,0,5.25.37l2.28,2.88c0,1.09,0,2.18.07,3.27a34.62,34.62,0,0,0-4.81-3.54A35.86,35.86,0,0,0,5.86,69.62Z"/><path d="M51.59,83.24H28.88l5,2.74c.94.47,1.95.94,3,1.4s2.31.93,3.38,1.3a24.52,24.52,0,0,0,3.12-1.32,25.28,25.28,0,0,0,2.71-1.59Z"/><path class="cls-1" d="M46.14,85.77a17.18,17.18,0,0,1-3.94,2.17,18.21,18.21,0,0,1-10.15.83,2.62,2.62,0,0,0-1.87,1.38,2.45,2.45,0,0,0-.08,1.58,2.87,2.87,0,0,0,1.5,2.09l.55.17c.21.06.6.17,1.06.28a5.85,5.85,0,0,0,1.08.2,2.9,2.9,0,0,0,1.13-.24l1.79-.63c1.39-.6,3.42-.35,4.53-.31a14.46,14.46,0,0,0,6.19-1.23Z"/><path class="cls-13" d="M22.71,89.34a3.5,3.5,0,0,0-.42,1.74,3.55,3.55,0,0,0,.53,1.76,7.77,7.77,0,0,0,2.5,1.94,8.49,8.49,0,0,0,4,.77,12.58,12.58,0,0,0,5.06-1.06A7.81,7.81,0,0,1,32.32,94a3.56,3.56,0,0,1-1.81-1.21,2.64,2.64,0,0,1-.43-1.44,2.73,2.73,0,0,1,1-2l1-.58a7.82,7.82,0,0,0-9.34.57Z"/><path class="cls-1" d="M33.9,86l-.14,3a15.87,15.87,0,0,0,6.36-.42c-1-.33-1.93-.7-3-1.13S34.91,86.48,33.9,86Z"/><path class="cls-3" d="M40.31,88.68a26.35,26.35,0,0,1-3.77-.14c-.92-.1-1.83-.25-2.74-.44V89a15.87,15.87,0,0,0,3,.19A14.84,14.84,0,0,0,40.31,88.68Z"/><path class="cls-3" d="M32.05,88.77l1.1.18a3.17,3.17,0,0,0-1.32.32,3.52,3.52,0,0,0-1.75,2.25,2.81,2.81,0,0,1,2-2.75Z"/><path class="cls-1" d="M50,91.76l-2.09.3h-.09c-2.15.34-4.19.75-6.1,1.22l1,.53.64.33.37.19.09,0H44l.15.07h0a2.3,2.3,0,0,1,.46.17L50,94.57l.61-2.21Z"/><path class="cls-13" d="M57.41,89.83A6.49,6.49,0,0,1,56.6,93a6.76,6.76,0,0,1-3.08,2.83,21.05,21.05,0,0,1-9.68-1.4,13,13,0,0,0,2.15.27,8.13,8.13,0,0,0,1.56,0A10.06,10.06,0,0,0,49,94.37a1.84,1.84,0,0,0,1.15-1.49,1.64,1.64,0,0,0-.31-1.09Z"/><path class="cls-3" d="M48,92.06l-6.19,1.23,2.1,1.1A5.84,5.84,0,0,1,48,92.06Z"/></g></g></svg>