<svg xmlns="http://www.w3.org/2000/svg" viewBox="0 0 104.77 7.17"><defs><style>.cls-1{fill:#e0ede4;}</style></defs><title>shadow</title><g id="Layer_2" data-name="Layer 2"><g id="Layer_1-2" data-name="Layer 1"><path class="cls-1" d="M70.31,0C75,0,80,0,85.31.33c6.45.35,12.52,1,18.14,1.7a1.4,1.4,0,0,1,1.32,1.47,1.38,1.38,0,0,1-1.32,1.25C90.9,6,80.06,6.65,71.45,7s-20.87.16-45.39-.19a116.62,116.62,0,0,1-14.22-1c-4.44-.6-8-1.35-10.46-1.91C.61,3.69,0,3.33,0,3s.82-.92,2.11-1c4.67-.55,9.6-1,14.77-1.29C23,.33,28.8.22,34.26.29Z"/></g></g></svg>